<?xml version="1.0" standalone="no"?>
<!DOCTYPE svg PUBLIC "-//W3C//DTD SVG 20010904//EN"
 "http://www.w3.org/TR/2001/REC-SVG-20010904/DTD/svg10.dtd">
<svg version="1.0" xmlns="http://www.w3.org/2000/svg"
 width="16.000000pt" height="16.000000pt" viewBox="0 0 16.000000 16.000000"
 preserveAspectRatio="xMidYMid meet">
<metadata>
Created by potrace 1.11, written by Peter Selinger 2001-2013
</metadata>
<g transform="translate(0.000000,16.000000) scale(0.001563,-0.001563)"
fill="#000000" stroke="none">
<path d="M2880 9667 c0 -4 178 -437 219 -532 11 -26 37 -89 101 -245 28 -69
55 -134 60 -145 5 -11 60 -141 121 -290 61 -148 142 -346 181 -440 39 -93 81
-195 93 -225 49 -121 97 -237 110 -265 7 -16 22 -53 33 -81 19 -47 178 -432
207 -499 7 -16 38 -93 70 -170 31 -77 65 -158 74 -180 10 -22 44 -105 76 -185
59 -145 71 -172 72 -148 0 7 3 51 7 98 4 47 9 108 12 135 2 28 6 75 9 105 3
30 8 80 10 110 2 30 7 80 10 110 3 30 7 84 10 120 7 85 14 166 21 239 3 32 7
83 9 112 4 47 11 137 20 234 18 196 17 219 -5 245 -11 13 -58 71 -103 128 -45
58 -86 110 -92 116 -5 6 -49 61 -97 121 -48 61 -147 185 -220 276 -73 91 -146
183 -163 204 -16 21 -54 68 -83 104 -81 100 -79 98 -432 540 -181 227 -330
411 -330 408z"/>
<path d="M3194 7968 c-1 -38 -14 -201 -19 -228 -2 -14 -7 -61 -11 -105 -3 -44
-7 -98 -9 -120 -2 -22 -6 -76 -10 -120 -3 -44 -8 -98 -10 -120 -3 -22 -7 -71
-10 -110 -7 -97 -15 -194 -20 -235 -2 -19 -7 -71 -10 -115 -4 -44 -8 -96 -10
-115 -2 -19 -7 -80 -11 -135 -3 -55 -7 -102 -9 -105 -2 -3 -6 -50 -10 -105 -4
-55 -8 -116 -10 -135 -2 -19 -6 -73 -10 -120 -3 -47 -8 -98 -10 -115 -2 -16
-6 -70 -10 -120 -3 -49 -8 -103 -10 -120 -2 -16 -7 -64 -10 -105 -9 -114 -15
-190 -20 -240 -3 -25 -7 -79 -10 -120 -3 -41 -8 -95 -10 -120 -2 -25 -7 -81
-10 -125 -3 -44 -8 -91 -10 -105 -2 -14 -7 -63 -10 -110 -4 -47 -8 -101 -10
-120 -2 -19 -6 -73 -10 -120 -3 -47 -8 -101 -10 -120 -2 -19 -7 -69 -10 -110
-7 -79 -12 -139 -20 -230 -2 -30 -7 -84 -10 -120 -3 -36 -7 -85 -10 -110 -5
-56 -13 -144 -20 -230 -3 -36 -8 -83 -10 -105 -3 -22 -7 -71 -10 -110 -3 -38
-8 -88 -10 -110 -3 -22 -7 -71 -10 -110 -3 -38 -8 -86 -10 -105 -2 -19 -7 -72
-10 -117 -3 -45 -7 -90 -9 -100 -2 -10 -7 -54 -10 -98 -22 -258 -54 -358 -146
-444 -105 -99 -196 -146 -329 -169 -67 -12 -185 -8 -237 7 -171 53 -322 192
-376 348 -33 96 -32 249 2 348 69 204 198 326 399 377 93 23 136 23 236 -1
147 -35 157 -34 161 14 4 51 16 194 19 225 2 19 6 69 10 110 3 41 7 95 10 120
2 25 7 79 10 120 3 41 8 95 10 120 3 25 7 77 10 115 3 39 7 90 10 115 2 25 7
72 10 105 3 33 8 92 11 130 4 39 7 99 8 134 l1 65 -67 12 c-127 24 -323 32
-448 19 -139 -15 -196 -24 -305 -51 -332 -80 -566 -196 -820 -408 -348 -289
-569 -663 -661 -1115 -42 -205 -51 -508 -20 -657 2 -12 7 -39 10 -60 4 -22 8
-46 11 -54 2 -8 6 -26 9 -40 21 -108 80 -270 149 -408 43 -85 51 -98 115 -195
107 -165 260 -335 417 -465 l60 -50 410 140 c225 76 469 159 540 183 72 24
229 77 350 119 487 166 1183 402 1398 474 144 49 229 82 232 92 2 8 7 51 10
95 3 44 8 100 10 125 2 25 7 79 10 120 4 41 8 91 10 110 4 47 14 160 21 240 2
36 7 83 9 105 2 22 7 76 10 120 3 44 8 98 10 120 2 22 7 76 10 120 3 44 8 96
10 115 3 19 8 71 11 115 3 44 7 96 9 115 2 19 6 69 9 110 4 41 9 100 12 130 3
30 7 78 9 105 13 160 46 548 50 590 9 90 20 215 31 355 3 41 7 91 9 110 2 19
7 73 10 120 4 47 8 99 10 115 21 177 20 188 -30 300 -7 17 -57 136 -110 265
-53 129 -155 377 -227 550 -71 173 -145 351 -163 395 -18 44 -56 134 -83 200
-28 66 -71 170 -95 230 -25 61 -102 247 -171 413 -69 167 -126 308 -126 313 0
20 -16 7 -16 -13z"/>
<path d="M4753 7657 c0 -14 -12 -148 -19 -223 -3 -28 -7 -77 -9 -110 -5 -77
-14 -189 -20 -239 -2 -22 -7 -71 -10 -110 -3 -38 -8 -88 -10 -110 -2 -22 -7
-80 -10 -130 -4 -49 -8 -101 -10 -115 -2 -14 -7 -65 -10 -115 -3 -49 -8 -106
-10 -125 -3 -19 -7 -69 -10 -110 -3 -41 -8 -95 -10 -120 -3 -25 -7 -78 -10
-119 -4 -40 -8 -92 -10 -115 -3 -22 -7 -72 -10 -111 -5 -70 -12 -150 -20 -235
-4 -47 -10 -115 -20 -240 -4 -41 -8 -86 -10 -100 -2 -14 -7 -65 -10 -115 -4
-49 -8 -106 -10 -125 -2 -19 -6 -73 -10 -120 -3 -47 -8 -96 -10 -110 -2 -14
-7 -65 -10 -115 -4 -49 -8 -106 -10 -125 -2 -19 -6 -71 -10 -115 -3 -44 -8
-96 -10 -115 -2 -19 -7 -71 -10 -115 -4 -44 -8 -96 -10 -115 -2 -19 -6 -75
-10 -125 -3 -49 -8 -101 -10 -115 -2 -14 -7 -63 -10 -110 -6 -87 -11 -150 -20
-230 -2 -25 -7 -79 -10 -120 -3 -41 -8 -95 -10 -120 -3 -25 -7 -79 -10 -120
-3 -41 -7 -95 -10 -120 -3 -25 -7 -72 -10 -105 -3 -33 -7 -85 -10 -115 -3 -30
-7 -86 -10 -125 -3 -38 -7 -90 -10 -115 -5 -49 -15 -160 -20 -230 -7 -91 -15
-186 -19 -225 -2 -22 -7 -76 -10 -120 -4 -44 -9 -102 -11 -130 -11 -113 -14
-154 -20 -230 -4 -44 -8 -93 -10 -110 -2 -16 -6 -73 -10 -125 -4 -52 -8 -106
-11 -119 -2 -14 -6 -63 -9 -110 -3 -47 -8 -99 -10 -116 -2 -16 -7 -68 -11
-115 -3 -47 -7 -98 -9 -115 -1 -16 -6 -73 -10 -125 -4 -52 -9 -98 -12 -102 -5
-10 -56 -9 745 -9 365 -1 667 2 670 6 4 3 7 18 8 33 1 31 13 179 19 237 2 22
7 74 10 115 3 41 8 91 10 110 2 19 6 73 9 120 4 47 9 101 11 120 2 19 7 71 10
115 3 44 7 100 10 125 8 76 19 207 30 340 12 144 21 252 30 340 2 19 6 77 10
128 4 52 8 101 10 110 1 10 6 60 10 112 4 52 8 111 10 130 2 19 6 69 9 110 4
41 8 95 11 120 2 25 7 79 10 120 3 41 8 91 10 110 2 19 7 73 10 120 4 47 8
101 10 120 2 19 6 71 10 115 3 44 8 96 10 115 2 19 6 71 10 115 9 124 15 186
20 230 2 22 7 81 10 130 4 50 8 101 10 115 3 14 7 63 10 110 3 47 8 96 10 110
2 14 7 66 10 115 4 50 8 106 10 125 2 19 6 76 10 125 3 50 8 101 10 115 2 14
7 61 10 105 3 44 8 98 10 120 1 22 6 76 10 120 3 44 8 96 10 115 2 19 7 76 10
125 4 50 8 101 10 115 2 14 7 61 10 105 3 44 8 98 10 120 2 22 7 78 11 125 4
47 8 96 9 110 2 14 3 42 4 63 l1 39 48 -6 c54 -7 139 -13 297 -21 61 -3 121
-8 135 -10 14 -2 56 -9 93 -15 287 -45 476 -242 494 -515 9 -138 -30 -261
-119 -373 l-50 -62 74 -92 c40 -51 81 -102 90 -113 16 -19 156 -195 223 -280
17 -21 99 -124 183 -229 84 -105 181 -227 216 -271 35 -44 73 -90 84 -103 l20
-22 112 111 c199 199 335 403 450 674 26 60 84 251 94 310 3 17 8 41 11 55 29
139 38 386 18 538 -34 272 -104 495 -225 722 -246 463 -713 831 -1218 960 -95
24 -96 25 -163 34 -27 4 -56 9 -65 11 -10 1 -51 6 -92 9 -41 4 -93 9 -115 11
-22 2 -67 7 -100 10 -33 4 -73 8 -90 10 -16 2 -59 6 -95 9 -36 3 -117 10 -180
16 -112 10 -164 14 -300 25 -78 6 -165 14 -240 20 -30 3 -82 7 -115 10 -176
13 -223 17 -255 20 -19 2 -73 6 -120 10 -47 3 -101 8 -120 10 -19 2 -73 7
-120 10 -47 4 -99 8 -116 10 -19 2 -31 -1 -31 -8z"/>
<path d="M6286 5063 c-3 -21 -8 -74 -11 -118 -3 -44 -8 -96 -10 -115 -2 -19
-7 -71 -10 -115 -4 -44 -8 -100 -11 -125 -2 -25 -7 -79 -10 -120 -3 -41 -7
-88 -9 -105 -1 -16 -6 -70 -10 -120 -4 -49 -8 -107 -10 -127 -2 -20 -7 -72
-10 -115 -4 -43 -8 -89 -10 -103 -2 -14 -6 -68 -10 -120 -3 -52 -8 -111 -10
-130 -5 -38 -12 -121 -20 -215 -5 -58 -13 -157 -20 -240 -1 -22 -6 -76 -10
-120 -8 -92 -8 -86 -6 -102 0 -6 798 -411 1773 -898 975 -488 1767 -881 1761
-874 -62 80 -824 1034 -848 1064 -47 57 -126 157 -155 195 -14 19 -50 64 -80
101 -30 37 -65 80 -77 95 -105 134 -1306 1637 -1313 1644 -3 3 -30 37 -60 75
-30 39 -57 72 -60 75 -3 3 -23 28 -45 55 -21 28 -42 52 -45 55 -3 3 -30 37
-60 75 -30 39 -57 72 -60 75 -3 3 -32 39 -65 80 -32 41 -62 77 -65 80 -3 3
-19 23 -36 45 -16 22 -34 46 -41 52 -6 7 -20 23 -30 36 -15 20 -31 25 -88 30
-67 5 -187 38 -212 58 -8 7 -13 -1 -17 -28z"/>
<path d="M6069 2558 c0 -24 -2 -50 -3 -58 -2 -8 -7 -60 -10 -115 -4 -55 -9
-111 -11 -125 -2 -14 -6 -63 -10 -110 -4 -47 -8 -101 -10 -120 -2 -19 -6 -73
-10 -120 -7 -84 -9 -113 -20 -220 -3 -30 -7 -89 -10 -130 -3 -41 -7 -95 -10
-120 -3 -25 -7 -74 -10 -110 -3 -36 -8 -90 -10 -120 -3 -30 -7 -83 -10 -117
-2 -33 -6 -83 -9 -110 -8 -80 -16 -165 -21 -233 -3 -36 -8 -93 -11 -127 l-6
-63 38 -1 c66 0 4157 0 4189 1 21 0 -566 299 -2007 1020 -1121 561 -2040 1020
-2043 1020 -3 0 -5 -19 -6 -42z"/>
<path d="M3615 1760 c-159 -55 -411 -140 -560 -190 -148 -50 -279 -95 -290
-100 -11 -5 -137 -48 -280 -96 -143 -47 -390 -131 -550 -186 -159 -54 -342
-116 -405 -138 -63 -21 -313 -105 -555 -188 -242 -82 -538 -182 -657 -223
-119 -40 -215 -75 -213 -77 5 -5 3695 -5 3700 0 2 1 6 41 10 88 3 47 8 96 10
110 2 14 7 66 10 115 4 50 8 106 10 125 2 19 6 71 9 115 4 44 9 96 11 115 2
19 7 71 10 115 3 44 8 98 10 120 2 22 7 69 9 105 12 138 17 207 21 248 2 23 1
42 -3 41 -4 0 -137 -45 -297 -99z"/>
</g>
</svg>
